<?xml version="1.0" standalone="no"?>
<!DOCTYPE svg PUBLIC "-//W3C//DTD SVG 20010904//EN"
 "http://www.w3.org/TR/2001/REC-SVG-20010904/DTD/svg10.dtd">
<svg version="1.0" xmlns="http://www.w3.org/2000/svg"
 width="764.000000pt" height="764.000000pt" viewBox="0 0 764.000000 764.000000"
 preserveAspectRatio="xMidYMid meet">
<metadata>
Created by potrace 1.11, written by Peter Selinger 2001-2013
</metadata>
<g transform="translate(0.000000,764.000000) scale(0.100000,-0.100000)"
fill="#000000" stroke="none">
<path d="M1507 6816 c-2 -6 -3 -1359 -3 -3006 l1 -2995 2312 -1 c1655 0 2313
2 2316 10 2 6 3 921 3 2033 l-1 2021 -25 22 c-14 12 -58 52 -99 88 -41 37 -79
72 -85 77 -7 6 -36 33 -66 60 -31 28 -98 88 -150 135 -52 47 -121 110 -155
140 -33 30 -78 70 -99 90 -22 19 -47 42 -56 50 -9 8 -54 49 -100 90 -47 41
-94 84 -105 95 -11 11 -41 38 -65 59 -46 40 -174 156 -285 256 -33 30 -103 93
-155 140 -52 47 -119 108 -150 135 -61 56 -103 93 -140 125 -14 12 -45 40 -70
63 -25 23 -88 80 -140 127 -52 47 -102 92 -110 100 -8 8 -33 31 -55 51 l-41
35 -664 3 c-1770 8 -1809 8 -1813 -3z m1848 -177 l560 -3 45 -40 c24 -23 63
-58 85 -78 22 -20 49 -45 61 -55 46 -40 221 -197 403 -363 52 -47 102 -92 111
-100 38 -33 186 -166 205 -185 12 -11 41 -38 66 -59 24 -22 84 -76 133 -120
49 -45 98 -89 110 -99 12 -10 35 -31 51 -46 17 -15 127 -114 245 -220 118
-107 229 -207 245 -222 17 -15 44 -41 61 -56 17 -15 66 -59 108 -97 41 -38 84
-74 93 -81 17 -13 18 -108 18 -1914 1 -1318 -2 -1902 -10 -1904 -5 -2 -966 -4
-2135 -3 l-2125 1 -1 2820 c0 1551 1 2823 2 2826 3 5 251 5 1669 -2z"/>
<path d="M3940 6169 c-1 -898 1 -1363 6 -1368 7 -7 1774 -8 1774 0 0 8 -84 84
-405 369 -21 19 -49 44 -60 55 -22 20 -154 138 -230 205 -22 19 -64 58 -95 86
-30 27 -118 106 -195 175 -77 68 -158 140 -179 159 -21 19 -44 40 -50 45 -6 6
-54 48 -106 95 -144 129 -172 154 -184 165 -58 51 -218 195 -243 219 l-33 30
0 -235z"/>
<path d="M2469 6126 c-1 -1 -2 -727 -3 -1613 l-2 -1613 86 -1 c85 0 1119 0
1153 1 16 0 17 17 17 218 l0 218 -360 0 -360 -1 0 1395 0 1395 -265 1 c-146 0
-266 0 -266 0z"/>
<path d="M3959 4565 c-3 -35 -4 -3202 -1 -3212 3 -10 148 -13 678 -13 635 0
674 1 675 18 0 9 1 119 2 245 l2 227 -382 0 -383 0 0 444 0 444 253 1 c138 0
262 0 275 1 l22 0 0 258 0 258 -266 -1 c-146 0 -270 3 -275 6 -5 3 -8 179 -7
425 l3 419 378 0 377 -1 1 31 c4 129 1 447 -4 452 -12 11 -1347 9 -1348 -2z"/>
</g>
</svg>
